<svg xmlns="http://www.w3.org/2000/svg" width="1621" height="1621" viewBox="0 0 16210 16210"><g fill="rgb(74,37,170)" style="transform: none;"><g><path d="M4025 12204 c-74 -38 -104 -96 -105 -197 0 -132 70 -209 190 -209 90 0 153 39 174 110 7 20 4 22 -28 22 -26 0 -36 -5 -41 -20 -20 -63 -129 -82 -183 -32 -39 36 -56 112 -41 180 16 76 57 112 126 112 52 0 100 -38 109 -87 l7 -33 -62 0 c-58 0 -61 -1 -61 -25 0 -25 0 -25 96 -25 l97 0 -6 49 c-9 73 -40 127 -87 151 -48 25 -142 27 -185 4z"/><path d="M4530 12215 c-1 -3 -1 -96 -1 -207 l0 -203 135 -3 136 -3 0 26 0 25 -105 0 -105 0 0 60 0 60 95 0 c95 0 95 0 95 25 0 25 0 25 -95 25 l-96 0 3 73 3 72 103 3 c101 3 102 3 102 27 l0 25 -135 0 c-74 0 -135 -2 -135 -5z"/><path d="M5090 12202 c-37 -18 -80 -74 -80 -103 0 -15 8 -19 35 -19 25 0 35 4 35 16 0 8 13 29 29 45 24 24 38 29 76 29 69 0 105 -23 105 -66 0 -33 -30 -52 -106 -68 -95 -20 -118 -30 -143 -62 -39 -49 -22 -123 36 -157 36 -20 140 -25 184 -8 32 12 79 66 79 92 0 15 -7 19 -35 19 -24 0 -35 -5 -35 -15 0 -31 -42 -55 -95 -55 -55 0 -79 13 -90 47 -9 33 24 59 92 73 85 16 141 39 158 63 8 12 15 42 15 68 0 51 -27 91 -75 109 -43 16 -146 12 -185 -8z"/><path d="M5660 12035 l0 -185 -60 0 c-57 0 -60 -1 -60 -25 l0 -25 155 0 155 0 0 25 c0 24 -3 25 -60 25 l-60 0 -1 78 c0 42 0 125 1 185 l1 107 -35 0 -36 0 0 -185z"/><path d="M5990 12215 c0 -3 32 -98 72 -211 l72 -204 42 0 c24 0 46 5 49 10 7 11 145 399 145 406 0 2 -15 4 -34 4 -33 0 -35 -2 -53 -57 l-20 -58 -85 -3 -85 -3 -19 58 c-18 54 -22 58 -51 61 -18 2 -33 0 -33 -3z m250 -172 c0 -5 -14 -51 -32 -103 l-31 -95 -28 83 c-16 46 -31 92 -34 103 -6 17 -1 19 59 19 36 0 66 -3 66 -7z"/><path d="M6664 12206 c-114 -50 -151 -225 -72 -339 57 -80 221 -94 297 -24 75 69 83 243 13 320 -48 53 -166 74 -238 43z m169 -66 c45 -40 62 -102 47 -174 -17 -81 -56 -116 -131 -116 -81 0 -129 59 -129 160 0 100 51 160 137 160 33 0 50 -7 76 -30z"/><path d="M7469 12218 c-1 -2 -2 -96 -3 -210 l-2 -208 133 0 133 0 0 25 0 25 -100 0 -100 0 0 70 0 70 95 0 c95 0 95 0 95 25 0 25 0 25 -95 25 l-95 0 0 90 0 90 -30 0 c-16 0 -31 -1 -31 -2z"/><path d="M7950 12011 l0 -211 34 0 33 0 -1 208 -1 207 -32 3 -33 3 0 -210z"/><path d="M8260 12011 l0 -211 38 0 37 0 94 156 c52 85 98 157 103 160 4 3 8 -67 8 -155 l0 -161 30 0 30 0 0 210 0 210 -39 0 c-48 0 -49 -1 -156 -184 -44 -74 -82 -136 -85 -136 -3 0 -5 71 -5 158 l0 157 -27 3 -28 3 0 -210z"/><path d="M8812 12208 c1 -8 34 -103 73 -211 l69 -197 46 0 46 0 68 198 c38 108 71 203 74 210 3 8 -7 12 -31 12 -34 0 -36 -2 -54 -57 l-20 -58 -84 -3 -84 -3 -20 58 c-19 54 -23 58 -53 61 -25 3 -33 0 -30 -10z m248 -165 c0 -5 -14 -51 -32 -103 l-31 -95 -28 83 c-16 46 -31 92 -34 103 -6 17 -1 19 59 19 36 0 66 -3 66 -7z"/><path d="M9400 12009 l0 -210 42 3 41 3 96 159 96 159 3 -161 2 -162 30 0 30 0 0 211 0 210 -42 -3 -41 -3 -96 -159 -96 -159 -3 161 -2 162 -30 0 -30 0 0 -211z"/><path d="M10075 12204 c-73 -38 -105 -96 -105 -194 0 -139 70 -212 202 -211 87 0 145 41 163 114 7 25 5 27 -24 27 -24 0 -34 -6 -41 -24 -14 -38 -58 -66 -102 -66 -86 0 -128 53 -128 160 0 108 42 160 129 160 46 0 95 -35 105 -75 5 -20 13 -25 37 -25 30 0 31 2 25 31 -8 43 -40 84 -80 103 -44 21 -141 21 -181 0z"/><path d="M10570 12010 l0 -210 135 0 135 0 0 25 c0 24 -1 24 -102 27 l-103 3 -3 58 -3 57 96 0 c95 0 95 0 95 25 0 25 0 25 -95 25 l-96 0 3 73 3 72 103 3 c101 3 102 3 102 27 l0 25 -135 0 -135 0 0 -210z"/><path d="M11070 12011 l0 -211 34 0 34 0 -2 208 -1 207 -32 3 -33 3 0 -210z"/><path d="M11380 12010 l0 -210 88 0 c116 1 161 12 195 50 48 54 31 153 -33 182 -16 7 -30 17 -30 21 0 4 17 34 38 65 22 31 44 67 51 80 11 21 10 22 -24 22 -33 0 -38 -5 -90 -85 -54 -83 -55 -85 -95 -85 l-40 0 0 85 0 85 -30 0 -30 0 0 -210z m233 -41 c14 -20 17 -35 12 -58 -9 -42 -48 -61 -125 -61 l-60 0 0 75 0 76 76 -3 c70 -3 79 -5 97 -29z"/><path d="M11910 12210 c0 -9 111 -331 135 -393 6 -14 17 -17 53 -15 l45 3 68 195 c38 107 69 200 69 208 0 9 -10 12 -32 10 -29 -3 -33 -8 -51 -61 l-19 -58 -86 3 -86 3 -16 55 c-15 51 -18 55 -48 58 -19 2 -32 -1 -32 -8z m245 -179 c-3 -11 -18 -57 -34 -103 l-28 -83 -31 95 c-18 52 -32 98 -32 103 0 4 30 7 66 7 60 0 65 -2 59 -19z"/><path d="M6090 11747 c0 -44 63 -74 90 -42 7 8 21 15 31 15 11 0 19 -7 19 -15 0 -8 7 -15 15 -15 17 0 20 23 5 51 -14 25 -45 24 -78 -2 l-27 -20 -16 20 c-19 24 -39 28 -39 8z"/><path d="M8660 11009 c-183 -21 -329 -79 -404 -159 -53 -57 -75 -104 -83 -181 -5 -52 -3 -60 20 -83 26 -25 29 -26 164 -26 157 0 193 11 253 75 42 44 68 58 138 75 l52 12 0 149 0 149 -32 -1 c-18 -1 -67 -5 -108 -10z"/><path d="M9020 10868 l0 -154 53 -14 c58 -15 117 -64 117 -99 0 -83 -71 -118 -399 -197 -300 -72 -382 -104 -489 -193 -45 -38 -69 -68 -94 -118 -31 -64 -33 -74 -33 -173 1 -94 3 -111 28 -161 71 -146 252 -238 507 -256 l90 -6 0 151 0 150 -32 7 c-116 25 -169 103 -117 169 39 49 115 78 350 131 89 20 198 48 243 61 185 55 310 144 368 262 30 61 33 74 33 162 0 83 -4 103 -29 157 -69 151 -244 240 -528 268 l-68 7 0 -154z"/><path d="M10423 11006 c-241 -46 -412 -164 -501 -346 -67 -137 -77 -187 -77 -400 0 -163 3 -194 23 -265 68 -235 231 -395 472 -465 96 -28 352 -39 468 -20 280 45 477 205 559 455 22 68 27 103 31 236 l4 156 -27 21 c-28 22 -30 22 -550 22 l-523 0 13 64 c23 124 89 208 188 238 25 8 92 13 167 12 144 0 179 -11 243 -76 67 -67 101 -78 260 -78 126 0 139 2 158 21 19 19 21 30 17 94 -8 121 -67 197 -204 262 -113 54 -227 73 -454 78 -139 3 -215 1 -267 -9z m517 -893 c0 -5 -7 -39 -15 -77 -25 -118 -80 -187 -176 -221 -60 -22 -194 -21 -260 0 -97 33 -164 127 -183 258 l-7 47 320 0 c177 0 321 -3 321 -7z"/><path d="M12098 11010 c-117 -20 -235 -82 -296 -156 -47 -57 -88 -144 -109 -232 -16 -71 -18 -137 -18 -795 l0 -719 24 -19 c21 -17 41 -19 207 -19 171 0 185 1 204 20 19 19 20 33 20 265 l0 245 204 0 c266 0 256 -7 256 160 0 167 10 160 -256 160 l-204 0 0 257 c0 143 5 285 11 320 14 81 58 149 119 183 42 23 52 25 155 21 224 -9 235 -8 256 18 16 19 19 40 19 120 0 109 -10 133 -63 150 -84 27 -413 40 -529 21z"/><path d="M3575 10979 c-11 -6 -29 -22 -40 -37 -20 -26 -20 -45 -23 -900 -3 -959 -5 -918 57 -955 27 -16 94 -17 849 -17 l820 0 31 25 c42 36 54 82 49 181 -5 91 -21 127 -69 151 -18 10 -169 13 -631 13 l-608 0 0 240 0 240 493 0 c458 0 495 1 526 18 53 29 71 72 71 172 0 102 -18 147 -70 172 -32 16 -79 18 -527 18 l-493 0 0 311 0 311 -34 34 -34 34 -173 -1 c-96 0 -183 -5 -194 -10z"/><path d="M5557 10972 c-16 -17 -17 -80 -17 -700 l0 -681 22 -15 c18 -13 56 -16 203 -16 147 0 185 3 203 16 l22 15 0 683 c0 649 -1 684 -18 699 -16 15 -46 17 -209 17 -171 0 -192 -2 -206 -18z"/><path d="M6374 10969 c-18 -20 -19 -48 -22 -697 -2 -471 1 -685 8 -703 18 -43 47 -49 231 -49 167 0 170 0 194 25 21 20 25 34 25 85 0 33 2 60 5 60 3 0 29 -18 57 -40 66 -53 195 -115 278 -134 83 -20 247 -20 329 -1 147 35 282 137 344 261 70 139 70 145 74 679 4 479 4 481 -17 508 l-21 27 -188 0 c-183 0 -188 -1 -209 -23 -22 -23 -22 -26 -22 -455 0 -442 -4 -501 -41 -573 -24 -47 -79 -95 -127 -110 -22 -6 -73 -10 -113 -8 -93 5 -174 43 -275 127 l-69 58 -5 478 c-5 458 -6 478 -24 492 -16 11 -61 14 -206 14 -177 0 -188 -1 -206 -21z"/><path d="M9257 9946 c-21 -8 -62 -37 -92 -65 -36 -35 -68 -55 -99 -63 l-46 -12 0 -153 c0 -139 2 -153 18 -153 9 0 60 7 112 14 298 45 450 164 450 352 0 45 -4 56 -26 73 -24 19 -40 21 -153 21 -79 -1 -140 -6 -164 -14z"/><path d="M5611 9372 c-55 -28 -75 -63 -79 -143 -6 -91 16 -142 69 -170 56 -28 272 -28 328 1 51 26 71 70 71 158 0 55 -5 76 -23 103 -38 57 -75 69 -212 69 -95 0 -127 -4 -154 -18z"/><path d="M7921 7999 c-634 -56 -1208 -414 -1541 -959 -327 -537 -382 -1214 -146 -1798 283 -698 919 -1174 1675 -1251 350 -36 737 31 1054 184 578 278 979 791 1112 1425 33 154 45 466 26 627 -62 505 -302 959 -680 1285 -417 361 -955 535 -1500 487z m-599 -868 c253 -65 452 -257 526 -506 19 -62 25 -113 29 -232 l6 -152 316 -3 316 -3 57 -27 c124 -58 213 -184 213 -302 0 -36 -8 -81 -18 -108 l-19 -48 -434 0 -434 0 0 -456 0 -457 -53 6 c-66 8 -186 49 -246 84 -209 121 -341 319 -371 557 -6 48 -10 397 -10 873 l0 793 23 0 c13 0 58 -9 99 -19z m1536 -1811 c221 -31 396 -250 349 -435 l-12 -50 -507 -3 -508 -2 0 250 0 250 308 0 c169 0 335 -5 370 -10z"/></g></g><g fill="rgb(255,255,255)" style="transform: none;"><g><path d="M7172 6303 c4 -957 1 -903 61 -1052 98 -242 357 -428 617 -443 l55 -3 3 458 2 457 434 0 434 0 19 48 c13 33 18 74 18 137 0 82 -3 97 -32 156 -39 79 -102 140 -181 177 l-57 27 -316 3 -316 3 -6 152 c-8 225 -53 354 -173 501 -118 143 -343 256 -511 256 l-54 0 3 -877z"/><path d="M8150 5080 l0 -280 538 2 537 3 14 60 c41 171 -59 369 -225 447 -90 42 -150 48 -526 48 l-338 0 0 -280z"/></g></g></svg>