<svg width="145" height="145" viewBox="0 0 145 145" fill="none" xmlns="http://www.w3.org/2000/svg">
<rect width="145" height="145" rx="22" fill="white"/>
<path d="M52.1997 82.1701C50.9997 82.2101 49.8797 82.1234 48.8397 81.9101C40.0797 80.1234 34.1431 75.2068 31.0297 67.1601C28.9564 61.8134 29.1131 56.3834 31.4997 50.8701C31.6731 50.4634 31.9797 50.2467 32.4197 50.2201L32.9997 50.1801C33.0701 50.1737 33.1408 50.1861 33.2049 50.216C33.269 50.2458 33.3243 50.2921 33.3656 50.3505C33.4068 50.4088 33.4325 50.4772 33.4403 50.5489C33.448 50.6207 33.4375 50.6934 33.4097 50.7601C28.7997 61.6401 32.7997 73.5301 42.9997 79.2201C46.7597 81.3134 50.5164 82.1001 54.2697 81.5801C59.4764 80.8534 63.9197 78.6568 67.5997 74.9901C67.736 74.8569 67.8443 74.698 67.9181 74.5228C67.992 74.3476 68.0299 74.1597 68.0297 73.9701L68.0197 60.2901C68.0197 59.9034 68.2131 59.7101 68.5997 59.7101H69.1297C69.5231 59.7101 69.7197 59.9067 69.7197 60.3001V72.3001C69.7197 73.0201 69.4797 73.6534 68.9997 74.2001C64.5197 79.2734 58.9197 81.9301 52.1997 82.1701Z" fill="#812E2D"/>
<path d="M97.0705 64.02L88.2805 93.26C87.9271 94.42 87.5771 94.42 87.2305 93.26L74.4205 50.71C74.2805 50.2433 74.4505 50.0533 74.9305 50.14L75.5605 50.25C75.71 50.2738 75.8495 50.3391 75.9628 50.4383C76.0761 50.5374 76.1585 50.6663 76.2005 50.81L87.8305 89.23C88.3038 90.81 88.7338 90.8 89.1205 89.2C89.5805 87.2667 90.0805 85.4267 90.6205 83.68C92.6005 77.2467 94.6605 70.3933 96.8005 63.12C96.9763 62.5397 96.9763 61.9203 96.8005 61.34L93.6405 50.74C93.6217 50.6802 93.6172 50.6168 93.6274 50.555C93.6375 50.4932 93.6621 50.4346 93.6991 50.384C93.7361 50.3334 93.7844 50.2922 93.8402 50.2637C93.8961 50.2352 93.9578 50.2202 94.0205 50.22L94.7205 50.21C94.8764 50.2098 95.0284 50.2602 95.1544 50.3538C95.2803 50.4474 95.3736 50.5792 95.4205 50.73L107.28 90.06C107.301 90.1271 107.343 90.1858 107.4 90.2275C107.457 90.2692 107.525 90.2916 107.595 90.2916C107.666 90.2916 107.734 90.2692 107.791 90.2275C107.848 90.1858 107.89 90.1271 107.91 90.06L119.79 50.54C119.837 50.38 119.937 50.3267 120.09 50.38L120.38 50.46C120.4 50.4667 120.407 50.4833 120.4 50.51C115.974 64.9033 111.63 79.2733 107.37 93.62C107.124 94.46 106.874 94.4633 106.62 93.63L97.5905 64.01C97.4171 63.45 97.2438 63.4533 97.0705 64.02Z" fill="#812E2D"/>
<path d="M34.3099 93.4601C43.0999 82.3101 60.2999 81.6001 69.3799 93.4101C69.6599 93.7701 69.5699 93.9701 69.1099 94.0101L68.6499 94.0601C68.4536 94.0748 68.257 94.0361 68.0809 93.9481C67.9048 93.8601 67.7559 93.726 67.6499 93.5601C64.3032 88.3201 59.3532 85.5734 52.7999 85.3201C45.9199 85.0501 39.7999 88.5901 35.4299 94.0501C35.3767 94.1157 35.3097 94.1687 35.2337 94.2051C35.1577 94.2415 35.0748 94.2604 34.9911 94.2604C34.9074 94.2604 34.8252 94.2415 34.7505 94.2051C34.6758 94.1687 34.6107 94.1157 34.5599 94.0501L34.3099 93.7301C34.2365 93.6368 34.2365 93.5468 34.3099 93.4601Z" fill="#812E2D"/>
</svg>
