<svg width="342" height="230" viewBox="0 0 342 230" fill="none" xmlns="http://www.w3.org/2000/svg">
<rect width="342" height="230" rx="4" fill="#060B27"/>
<rect x="210.535" y="97.7836" width="87" height="111" rx="5.5" transform="rotate(-4.11899 210.535 97.7836)" fill="#0E1330" stroke="#282D45"/>
<path d="M235.539 167.975L240.303 167.632L239.96 162.869L242.401 162.693L242.744 167.457L247.508 167.113L247.684 169.555L242.92 169.898L243.265 174.686L240.823 174.862L240.479 170.074L235.715 170.417L235.539 167.975ZM257.178 176.042C253.516 176.306 250.929 174.134 250.674 170.591L253.714 170.372C253.857 172.359 255.114 173.447 257.053 173.308C259.112 173.16 260.332 171.724 260.179 169.594C260.032 167.559 258.711 166.259 256.605 166.41C255.264 166.507 254.092 167.265 253.535 168.219L250.788 167.84L252.283 158.516L261.403 157.86L261.606 160.684L254.688 161.182L254.017 164.888C254.815 164.277 255.846 163.89 257.043 163.804C260.538 163.552 263.03 165.755 263.279 169.202C263.551 172.984 261.08 175.761 257.178 176.042ZM264.851 166.442C264.46 161.008 267.115 157.111 271.591 156.789C276.067 156.467 279.277 159.941 279.669 165.375C280.058 170.785 277.542 174.6 272.898 174.934C268.254 175.268 265.241 171.852 264.851 166.442ZM267.867 166.225C268.159 170.27 269.95 172.427 272.703 172.229C275.48 172.029 276.944 169.638 276.652 165.592C276.354 161.451 274.563 159.294 271.786 159.494C269.033 159.692 267.569 162.084 267.867 166.225Z" fill="#8F9BB7"/>
<path d="M249.217 193.602L243.939 193.982L243.316 185.329L248.594 184.949L248.672 186.026L244.567 186.322L244.761 189.027L248.46 188.76L248.535 189.802L244.836 190.068L245.034 192.809L249.139 192.513L249.217 193.602ZM252.213 193.387L249.434 187.703L250.631 187.617L252.147 190.793C252.39 191.329 252.593 191.807 252.715 192.159C252.783 191.769 252.938 191.253 253.105 190.724L254.174 187.362L255.347 187.278L253.327 193.306L252.213 193.387ZM258.93 193.047C257.207 193.171 255.932 192.012 255.801 190.193C255.669 188.361 256.739 187.009 258.439 186.887C260.102 186.767 261.274 187.837 261.399 189.573L261.429 189.992L256.906 190.33C257.079 191.556 257.774 192.192 258.887 192.112C259.761 192.049 260.309 191.649 260.453 190.964L261.506 190.889C261.309 192.166 260.379 192.943 258.93 193.047ZM258.507 187.832C257.525 187.903 256.945 188.534 256.876 189.574L260.251 189.331C260.181 188.361 259.5 187.761 258.507 187.832ZM264.007 192.537L262.882 192.618L262.46 186.765L263.478 186.692L263.662 187.581C263.985 186.884 264.698 186.436 265.524 186.376C267.068 186.265 267.842 187.16 267.95 188.656L268.208 192.235L267.083 192.316L266.843 188.988C266.758 187.803 266.173 187.364 265.311 187.426C264.258 187.502 263.702 188.3 263.784 189.437L264.007 192.537ZM271.418 192.004L270.293 192.085L269.939 187.177L268.79 187.26L268.722 186.314L269.871 186.232L269.739 184.4L270.865 184.319L270.996 186.151L272.145 186.068L272.214 187.013L271.065 187.096L271.418 192.004ZM272.924 188.947C272.794 187.14 273.995 185.778 275.755 185.652C277.502 185.526 278.886 186.701 279.016 188.509C279.146 190.316 277.945 191.678 276.198 191.804C274.438 191.93 273.054 190.755 272.924 188.947ZM274.061 188.866C274.149 190.086 274.988 190.88 276.125 190.798C277.25 190.717 277.979 189.811 277.891 188.59C277.803 187.369 276.952 186.576 275.827 186.657C274.69 186.739 273.973 187.645 274.061 188.866ZM279.872 189.686L280.949 189.609C280.992 190.207 281.473 190.534 282.215 190.48C283.005 190.423 283.436 190.067 283.397 189.529C283.369 189.134 283.16 188.908 282.539 188.796L281.492 188.631C280.433 188.455 279.905 187.976 279.843 187.114C279.765 186.037 280.626 185.289 281.918 185.196C283.199 185.103 284.089 185.761 284.193 186.873L283.116 186.95C283.049 186.366 282.628 186.023 281.945 186.072C281.239 186.123 280.867 186.463 280.906 187.001C280.934 187.396 281.24 187.639 281.825 187.741L282.872 187.918C283.883 188.086 284.407 188.506 284.47 189.379C284.55 190.492 283.643 191.268 282.255 191.368C280.878 191.467 279.952 190.799 279.872 189.686Z" fill="#8F9BB7"/>
<circle cx="255.524" cy="127.524" r="22" transform="rotate(-4.12 255.524 127.524)" fill="#FFC933"/>
<rect width="24" height="24" transform="translate(242.693 116.417) rotate(-4.12)" fill="#FFC933"/>
<path d="M261.594 129.413C261.353 129.682 261.261 130.052 261.345 130.403L262.585 135.247C262.69 135.657 262.545 136.091 262.214 136.356C261.891 136.63 261.439 136.693 261.053 136.52L256.469 134.534C256.31 134.464 256.136 134.432 255.961 134.439L255.691 134.459C255.598 134.48 255.509 134.516 255.428 134.568L251.176 137.201C250.966 137.327 250.721 137.384 250.476 137.362C249.878 137.293 249.443 136.759 249.497 136.158L250.031 131.187C250.064 130.825 249.919 130.469 249.643 130.234L245.79 127.002C245.467 126.732 245.331 126.3 245.44 125.894C245.545 125.49 245.866 125.177 246.273 125.082L251.178 124.006C251.552 123.94 251.867 123.687 252.012 123.336L253.874 118.7C253.919 118.596 253.979 118.5 254.054 118.416L254.139 118.34C254.182 118.285 254.233 118.238 254.29 118.199L254.396 118.151L254.56 118.069L254.98 118.039C255.358 118.05 255.704 118.251 255.901 118.574L258.436 122.873C258.619 123.187 258.945 123.392 259.307 123.421L264.316 123.783C264.739 123.812 265.11 124.076 265.278 124.465C265.437 124.856 265.356 125.303 265.07 125.613L261.594 129.413Z" fill="black"/>
<rect x="38.4608" y="34" width="134" height="134" rx="22" transform="rotate(4.47741 38.4608 34)" fill="white"/>
<path d="M125.462 70.7374L118.243 68.205C118.232 68.2013 118.222 68.1942 118.215 68.1848C118.208 68.1753 118.204 68.1639 118.203 68.1519C118.203 68.14 118.206 68.128 118.212 68.1176C118.218 68.1072 118.227 68.0988 118.238 68.0934L139.132 57.9167C139.202 57.8823 139.234 57.9042 139.227 57.9825L137.076 82.8714C137.074 82.8839 137.069 82.8957 137.061 82.9053C137.053 82.9149 137.042 82.9218 137.03 82.9252C137.018 82.9285 137.005 82.9282 136.993 82.9241C136.981 82.9201 136.971 82.9125 136.964 82.9025L130.4 74.0029C130.392 73.9914 130.381 73.9818 130.369 73.9748C130.356 73.9677 130.343 73.9633 130.328 73.962C130.314 73.9606 130.3 73.9622 130.286 73.9668C130.273 73.9713 130.261 73.9786 130.25 73.9883C115.678 87.5945 100.885 101.494 86.2553 114.567C85.8877 114.896 85.1171 115.623 84.645 115.722C82.8086 116.108 81.3977 113.279 80.6117 112.038C80.3219 111.58 80.011 111.117 79.6792 110.649C75.5468 104.823 71.4444 98.99 67.372 93.149C67.3659 93.1404 67.3572 93.1337 67.3473 93.1299C67.3373 93.1261 67.3264 93.1253 67.316 93.1277C67.3056 93.1301 67.2961 93.1355 67.2888 93.1433C67.2815 93.1511 67.2766 93.1608 67.2749 93.1714C66.9828 95.2282 66.6878 97.1936 66.2524 99.2434C65.9909 100.472 65.207 104.19 65.1416 104.206C65.1117 104.212 65.0979 104.2 65.1003 104.17C65.1247 103.906 65.1368 103.716 65.1363 103.6C65.0903 99.349 65.082 94.9981 65.547 90.7698C65.6228 90.0934 65.9925 89.0469 66.9122 89.3625C67.2479 89.4771 67.773 90.0837 68.0254 90.3898C73.6275 97.1957 78.9588 104.223 84.3696 111.18C84.4024 111.223 84.4383 111.225 84.4773 111.187L125.474 70.7896C125.498 70.7659 125.495 70.7485 125.462 70.7374Z" fill="#FBAD3E"/>
<path d="M106.404 147.46L110.153 99.5716C110.154 99.5635 110.157 99.5558 110.161 99.5491C110.166 99.5425 110.172 99.5372 110.179 99.5337L136.864 87.2962C136.872 87.2928 136.88 87.2913 136.888 87.292C136.895 87.2926 136.903 87.2953 136.91 87.2999C136.916 87.3045 136.922 87.3107 136.925 87.3179C136.928 87.3252 136.93 87.3332 136.929 87.3412L131.267 159.644C131.267 159.652 131.265 159.659 131.261 159.665C131.257 159.671 131.251 159.677 131.245 159.68C131.238 159.684 131.231 159.686 131.223 159.686C131.216 159.687 131.209 159.685 131.202 159.682L106.429 147.504C106.42 147.5 106.414 147.494 106.409 147.486C106.405 147.478 106.403 147.469 106.404 147.46Z" fill="#424648"/>
<path d="M63.187 129.534L64.4124 113.884C64.413 113.875 64.4163 113.866 64.4219 113.858C64.4276 113.851 64.4353 113.845 64.4442 113.842L71.3398 111.442C71.3471 111.44 71.3549 111.439 71.3625 111.44C71.3701 111.442 71.3773 111.445 71.3834 111.449C71.3895 111.454 71.3944 111.46 71.3976 111.467C71.4007 111.474 71.4021 111.482 71.4016 111.49L69.7248 132.903C69.7241 132.911 69.7216 132.918 69.7174 132.925C69.7131 132.931 69.7074 132.936 69.7006 132.94C69.6938 132.944 69.6862 132.946 69.6785 132.946C69.6708 132.946 69.6632 132.944 69.6564 132.94L63.2118 129.58C63.2036 129.575 63.1968 129.569 63.1924 129.561C63.1879 129.552 63.186 129.543 63.187 129.534Z" fill="#424648"/>
</svg>
