<svg width="267" height="268" viewBox="0 0 267 268" fill="none" xmlns="http://www.w3.org/2000/svg">
<rect width="267" height="267" rx="24" fill="white"/>
<path d="M133.375 78.7135C140.348 78.7135 146.001 73.0606 146.001 66.0873C146.001 59.1141 140.348 53.4612 133.375 53.4612C126.402 53.4612 120.749 59.1141 120.749 66.0873C120.749 73.0606 126.402 78.7135 133.375 78.7135Z" fill="#2A596D"/>
<path d="M154.196 102.531L137.254 213.213C137.129 214.021 137.067 214.017 137.067 213.199V88.1858C137.068 88.1417 137.084 88.099 137.113 88.0652C137.142 88.0319 137.181 88.0096 137.225 88.0028L200.941 78.8355C200.961 78.8333 200.981 78.838 200.998 78.8491C201.014 78.8599 201.027 78.8764 201.033 78.8954C201.038 78.9144 201.038 78.9352 201.03 78.9535C201.023 78.9722 201.009 78.9876 200.991 78.9969L154.458 102.175C154.39 102.209 154.33 102.258 154.284 102.32C154.239 102.382 154.209 102.454 154.196 102.531Z" fill="#09B9BE"/>
<path d="M65.946 79.1728L129.518 88.1966C129.647 88.2156 129.712 88.2909 129.712 88.4226V171.739C129.711 171.757 129.704 171.774 129.691 171.786C129.68 171.799 129.663 171.808 129.646 171.81C129.628 171.812 129.611 171.808 129.596 171.798C129.581 171.789 129.57 171.774 129.565 171.757L111.944 102.484C111.904 102.326 111.81 102.21 111.664 102.136L65.9029 79.3127C65.8886 79.3041 65.8774 79.2908 65.8713 79.275C65.8652 79.2592 65.8645 79.242 65.8695 79.2259C65.8746 79.2097 65.8846 79.1957 65.8986 79.186C65.9126 79.1763 65.9291 79.1717 65.946 79.1728Z" fill="#2A596D"/>
</svg>
