<svg width="32" height="30" viewBox="0 0 32 30" fill="none" xmlns="http://www.w3.org/2000/svg">
<g clip-path="url(#clip0_222_37)">
<path d="M10.3235 5.41219C10.9625 5.42722 11.5413 4.85594 11.5262 4.217C11.5262 3.18718 11.5337 2.14985 11.5262 1.12003C11.4962 0.435993 10.7971 -0.120259 10.1206 0.0150455C9.5643 0.0977316 9.11329 0.623915 9.12832 1.1952C9.12832 2.20247 9.12832 3.20973 9.12832 4.20948C9.10577 4.85594 9.68458 5.42722 10.3235 5.41219Z" fill="#F6F6F7"/>
<path d="M22.3506 5.41219C22.9895 5.42722 23.5608 4.85594 23.5533 4.217C23.5533 3.18718 23.5608 2.14985 23.5533 1.12003C23.5307 0.435993 22.8241 -0.120259 22.1476 0.0150455C21.5913 0.105248 21.1403 0.631432 21.1554 1.1952C21.1554 2.20247 21.1554 3.20973 21.1554 4.20948C21.1328 4.85594 21.7116 5.42722 22.3506 5.41219Z" fill="#F6F6F7"/>
<path d="M31.9722 10.8243H0.701843C0.701843 14.7858 0.701843 19.0178 0.701843 23.0093V26.5873C0.701843 28.4665 2.22778 29.9925 4.10701 29.9925H7.51217C13.8339 29.9925 20.1631 29.9925 26.4849 29.9925C26.545 29.9925 26.6051 29.9925 26.6728 29.9925H28.5746C30.4538 29.9925 31.9797 28.4665 31.9797 26.5873V23.0093H31.9722C31.9722 19.0178 31.9722 14.7933 31.9722 10.8243ZM21.9146 19.0178C21.862 19.4462 21.5387 19.7619 21.1929 19.9799L19.4265 21.2503C19.667 21.9945 19.9076 22.7311 20.1481 23.4753C20.2984 23.8662 20.2909 24.3322 20.0353 24.678C19.6896 25.2042 18.9078 25.3545 18.3967 25.0012C17.7051 24.5126 17.0286 24.009 16.337 23.5129C15.7056 23.9714 15.0817 24.4224 14.4503 24.881C14.2323 25.0463 13.9842 25.1816 13.7061 25.1967C13.2476 25.2343 12.789 24.9862 12.5635 24.5878C12.3906 24.2871 12.3681 23.9188 12.4808 23.5956C12.7289 22.8213 12.9845 22.0471 13.2325 21.2728C12.5635 20.7767 11.887 20.2956 11.2105 19.7995C10.782 19.4913 10.6091 18.8825 10.8121 18.4014C10.9775 17.9579 11.4285 17.6497 11.902 17.6422C12.7364 17.6347 13.5783 17.6422 14.4202 17.6422C14.6833 16.8454 14.9314 16.0486 15.1945 15.2593C15.3598 14.7632 15.886 14.4174 16.4047 14.4625C16.8707 14.4851 17.3067 14.8158 17.457 15.2593C17.7201 16.0486 17.9757 16.8454 18.2313 17.6347C18.2313 17.6422 18.2388 17.6422 18.2388 17.6422C19.0882 17.6497 19.9451 17.6347 20.7946 17.6497C21.4936 17.6572 22.0424 18.3488 21.9146 19.0178Z" fill="#F6F6F7"/>
<path d="M26.6352 2.41291C26.0113 2.39036 25.3799 2.42795 24.756 2.41291C24.7485 3.10447 24.7785 3.80354 24.7409 4.4951C24.6282 5.67525 23.5382 6.64493 22.3581 6.62238C21.1779 6.65245 20.0805 5.67525 19.9677 4.50261C19.9301 3.81106 19.9602 3.11199 19.9527 2.42043H12.7364C12.7289 3.11199 12.759 3.81106 12.7214 4.50261C12.6086 5.68277 11.5187 6.65245 10.3385 6.6299C9.15838 6.65997 8.06091 5.69029 7.94816 4.51013C7.91057 3.81858 7.94064 3.1195 7.93312 2.42043C7.30922 2.42043 6.6778 2.42043 6.05389 2.42043H4.17467C2.24282 2.41291 0.694336 3.9614 0.694336 5.87069V8.1859C0.694336 8.66698 0.716887 9.14807 0.701853 9.62163H31.9722C31.9572 9.14807 31.9797 8.66698 31.9797 8.1859V5.87069C31.9797 3.9614 30.4312 2.4054 28.5144 2.4054H26.6352V2.41291Z" fill="#32CAFD"/>
</g>
<defs>
<clipPath id="clip0_222_37">
<rect width="31.2779" height="30" fill="white" transform="translate(0.694336)"/>
</clipPath>
</defs>
</svg>
