<svg width="51" height="50" viewBox="0 0 51 50" fill="none" xmlns="http://www.w3.org/2000/svg">
<path d="M39.1594 48.6712L12.8436 48.6962C7.05417 48.7014 2.31338 43.9698 2.3068 38.1804L2.2818 11.8646C2.27654 6.07511 7.00812 1.33432 12.7976 1.32774L39.1134 1.30274C44.9029 1.29748 49.6436 6.02906 49.6502 11.8185L49.6752 38.1343C49.6818 43.9251 44.9489 48.6659 39.1594 48.6712Z" fill="url(#paint0_radial_308_189)"/>
<path d="M39.1594 48.6712L12.8436 48.6962C7.05417 48.7014 2.31338 43.9698 2.3068 38.1804L2.2818 11.8646C2.27654 6.07511 7.00812 1.33432 12.7976 1.32774L39.1134 1.30274C44.9029 1.29748 49.6436 6.02906 49.6502 11.8185L49.6752 38.1343C49.6818 43.9251 44.9489 48.6659 39.1594 48.6712Z" fill="url(#paint1_radial_308_189)"/>
<path d="M25.9792 34.2106C20.9016 34.2106 16.7687 30.079 16.7687 25.0001C16.7687 19.9211 20.9016 15.7896 25.9792 15.7896C31.0568 15.7896 35.1897 19.9211 35.1897 25.0001C35.1897 30.079 31.0568 34.2106 25.9792 34.2106ZM25.9792 18.4211C22.3516 18.4211 19.4003 21.3724 19.4003 25.0001C19.4003 28.6277 22.3516 31.579 25.9792 31.579C29.6068 31.579 32.5582 28.6277 32.5582 25.0001C32.5582 21.3724 29.6068 18.4211 25.9792 18.4211Z" fill="white"/>
<path d="M35.8476 17.1051C36.9376 17.1051 37.8213 16.2214 37.8213 15.1314C37.8213 14.0414 36.9376 13.1577 35.8476 13.1577C34.7575 13.1577 33.8739 14.0414 33.8739 15.1314C33.8739 16.2214 34.7575 17.1051 35.8476 17.1051Z" fill="white"/>
<path d="M33.8739 42.1051H18.0844C13.0068 42.1051 8.8739 37.9735 8.8739 32.8945V17.1051C8.8739 12.0261 13.0068 7.89453 18.0844 7.89453H33.8739C38.9515 7.89453 43.0844 12.0261 43.0844 17.1051V32.8945C43.0844 37.9735 38.9515 42.1051 33.8739 42.1051ZM18.0844 10.5261C14.4568 10.5261 11.5055 13.4774 11.5055 17.1051V32.8945C11.5055 36.5222 14.4568 39.4735 18.0844 39.4735H33.8739C37.5015 39.4735 40.4528 36.5222 40.4528 32.8945V17.1051C40.4528 13.4774 37.5015 10.5261 33.8739 10.5261H18.0844Z" fill="white"/>
<defs>
<radialGradient id="paint0_radial_308_189" cx="0" cy="0" r="1" gradientUnits="userSpaceOnUse" gradientTransform="translate(19.9002 48.7304) scale(59.0776)">
<stop stop-color="#FFDD55"/>
<stop offset="0.328" stop-color="#FF543F"/>
<stop offset="0.348" stop-color="#FC5245"/>
<stop offset="0.504" stop-color="#E64771"/>
<stop offset="0.643" stop-color="#D53E91"/>
<stop offset="0.761" stop-color="#CC39A4"/>
<stop offset="0.841" stop-color="#C837AB"/>
</radialGradient>
<radialGradient id="paint1_radial_308_189" cx="0" cy="0" r="1" gradientUnits="userSpaceOnUse" gradientTransform="translate(9.90812 0.711031) scale(39.2276 26.1374)">
<stop stop-color="#4168C9"/>
<stop offset="0.999" stop-color="#4168C9" stop-opacity="0"/>
</radialGradient>
</defs>
</svg>
