<svg width="31" height="31" viewBox="0 0 31 31" fill="none" xmlns="http://www.w3.org/2000/svg">
<g clip-path="url(#clip0_2033_27)">
<path d="M15.2702 17.26C14.0768 17.4867 14.0068 17.3 15.0602 16.7C17.6402 15.2333 20.3902 15.2567 23.3102 16.77C23.8368 17.0433 23.8035 17.1967 23.2102 17.23L22.4602 17.27C21.9602 17.2967 21.7068 17.56 21.7002 18.06L21.6502 26.79C21.6512 26.847 21.6671 26.9028 21.6961 26.9519C21.7251 27.0009 21.7662 27.0413 21.8152 27.0688C21.8641 27.0964 21.9192 27.1101 21.9746 27.1085C22.03 27.107 22.0837 27.0902 22.1302 27.06C28.4502 23.15 30.4102 14.99 25.5102 9.18999C16.0902 -1.94001 -0.909819 9.92999 6.05018 22.45C8.02351 25.99 11.2468 28.02 15.7202 28.54C15.837 28.5526 15.9551 28.5405 16.067 28.5046C16.1788 28.4687 16.2819 28.4098 16.3695 28.3315C16.4572 28.2533 16.5274 28.1576 16.5758 28.0505C16.6241 27.9435 16.6495 27.8275 16.6502 27.71L16.7202 18.67C16.7202 18.2967 16.6102 17.96 16.3902 17.66C16.1235 17.3067 15.7502 17.1733 15.2702 17.26Z" stroke="#F6999B" stroke-width="2"/>
<path d="M21.5606 11.6402C21.5606 10.9824 21.2993 10.3516 20.8342 9.88653C20.3691 9.42144 19.7383 9.16016 19.0806 9.16016C18.4228 9.16016 17.7921 9.42144 17.327 9.88653C16.8619 10.3516 16.6006 10.9824 16.6006 11.6402C16.6006 12.2979 16.8619 12.9287 17.327 13.3938C17.7921 13.8589 18.4228 14.1202 19.0806 14.1202C19.7383 14.1202 20.3691 13.8589 20.8342 13.3938C21.2993 12.9287 21.5606 12.2979 21.5606 11.6402Z" stroke="#F6999B" stroke-width="2"/>
<path d="M0 0H30.9998V31H0V0ZM15.2698 17.26C14.0764 17.4867 14.0064 17.3 15.0598 16.7C17.6398 15.2333 20.3898 15.2567 23.3098 16.77C23.8364 17.0433 23.8031 17.1967 23.2098 17.23L22.4598 17.27C21.9598 17.2967 21.7064 17.56 21.6998 18.06L21.6498 26.79C21.6508 26.847 21.6666 26.9029 21.6957 26.9519C21.7247 27.0009 21.7658 27.0413 21.8148 27.0688C21.8637 27.0964 21.9188 27.1101 21.9742 27.1085C22.0296 27.107 22.0833 27.0902 22.1298 27.06C28.4498 23.15 30.4098 14.99 25.5098 9.19C16.0898 -1.94 -0.910223 9.93 6.04978 22.45C8.02311 25.99 11.2464 28.02 15.7198 28.54C15.8366 28.5526 15.9547 28.5405 16.0666 28.5046C16.1784 28.4687 16.2815 28.4098 16.3691 28.3315C16.4568 28.2533 16.527 28.1576 16.5754 28.0505C16.6237 27.9435 16.6491 27.8275 16.6498 27.71L16.7198 18.67C16.7198 18.2967 16.6098 17.96 16.3898 17.66C16.1231 17.3067 15.7498 17.1733 15.2698 17.26Z" fill="white"/>
<path d="M15.2702 17.26C15.7502 17.1733 16.1235 17.3067 16.3902 17.66C16.6102 17.96 16.7202 18.2967 16.7202 18.67L16.6502 27.71C16.6495 27.8275 16.6241 27.9435 16.5758 28.0505C16.5274 28.1576 16.4572 28.2533 16.3695 28.3315C16.2819 28.4098 16.1788 28.4687 16.067 28.5046C15.9551 28.5405 15.837 28.5526 15.7202 28.54C11.2468 28.02 8.02351 25.99 6.05018 22.45C-0.909819 9.92999 16.0902 -1.94001 25.5102 9.18999C30.4102 14.99 28.4502 23.15 22.1302 27.06C22.0837 27.0902 22.03 27.107 21.9746 27.1085C21.9192 27.1101 21.8641 27.0964 21.8152 27.0688C21.7662 27.0413 21.7251 27.0009 21.6961 26.9519C21.6671 26.9028 21.6512 26.847 21.6502 26.79L21.7002 18.06C21.7068 17.56 21.9602 17.2967 22.4602 17.27L23.2102 17.23C23.8035 17.1967 23.8368 17.0433 23.3102 16.77C20.3902 15.2567 17.6402 15.2333 15.0602 16.7C14.0068 17.3 14.0768 17.4867 15.2702 17.26ZM21.5602 11.64C21.5602 10.9823 21.2989 10.3515 20.8338 9.88637C20.3687 9.42128 19.7379 9.15999 19.0802 9.15999C18.4224 9.15999 17.7916 9.42128 17.3266 9.88637C16.8615 10.3515 16.6002 10.9823 16.6002 11.64C16.6002 12.2977 16.8615 12.9285 17.3266 13.3936C17.7916 13.8587 18.4224 14.12 19.0802 14.12C19.7379 14.12 20.3687 13.8587 20.8338 13.3936C21.2989 12.9285 21.5602 12.2977 21.5602 11.64Z" fill="#ED3237"/>
<path d="M21.5596 11.6402C21.5596 12.2979 21.2983 12.9287 20.8332 13.3938C20.3681 13.8589 19.7373 14.1202 19.0796 14.1202C18.4219 14.1202 17.7911 13.8589 17.326 13.3938C16.8609 12.9287 16.5996 12.2979 16.5996 11.6402C16.5996 10.9824 16.8609 10.3516 17.326 9.88653C17.7911 9.42144 18.4219 9.16016 19.0796 9.16016C19.7373 9.16016 20.3681 9.42144 20.8332 9.88653C21.2983 10.3516 21.5596 10.9824 21.5596 11.6402Z" fill="white"/>
</g>
<defs>
<clipPath id="clip0_2033_27">
<rect width="31" height="31" fill="white"/>
</clipPath>
</defs>
</svg>
