<svg width="47" height="48" viewBox="0 0 47 48" fill="none" xmlns="http://www.w3.org/2000/svg">
<path d="M46.9631 40.7917C46.9631 44.3592 44.0724 47.25 40.5048 47.25H6.92147C3.35518 47.25 0.463135 44.3592 0.463135 40.7917V7.20833C0.463135 3.64075 3.35518 0.75 6.92147 0.75H40.5048C44.0724 0.75 46.9631 3.64075 46.9631 7.20833V40.7917Z" fill="#0078D4"/>
<path d="M8.21313 17.5417H14.6715V39.5H8.21313V17.5417ZM11.4229 14.9583H11.3868C9.45959 14.9583 8.21313 13.522 8.21313 11.7279C8.21313 9.895 9.49834 8.5 11.4604 8.5C13.425 8.5 14.6353 9.895 14.6715 11.7279C14.6715 13.5207 13.425 14.9583 11.4229 14.9583ZM39.2131 39.5H32.7548V27.7471C32.7548 24.908 31.1725 22.9705 28.6318 22.9705C26.693 22.9705 25.6442 24.2777 25.1353 25.541C24.9493 25.993 25.0048 27.2434 25.0048 27.875V39.5H18.5465V17.5417H25.0048V20.9207C25.9361 19.4792 27.3944 17.5417 31.1247 17.5417C35.7463 17.5417 39.2118 20.4479 39.2118 26.9373L39.2131 39.5Z" fill="white"/>
</svg>
