<svg width="155" height="60" viewBox="0 0 155 60" fill="none" xmlns="http://www.w3.org/2000/svg">
<g clip-path="url(#clip0_308_11)">
<path d="M0.10492 30.161C0.047777 30.1038 0.0255549 30.0354 0.0382532 29.9559C0.0557135 29.8319 0.132697 29.7024 0.269205 29.5673C10.1279 19.7603 19.9628 9.93976 29.7739 0.105744C29.8098 0.0694881 29.8588 0.0491333 29.9101 0.0491333C29.9614 0.0491333 30.0109 0.0694881 30.0477 0.105744L59.6572 29.7604C59.8064 29.9098 59.8064 30.0585 59.6572 30.2063L29.9953 59.9134C29.9334 59.977 29.8707 59.977 29.8072 59.9134L20.7406 50.8282C20.7283 50.816 20.7186 50.8015 20.712 50.7855C20.7054 50.7696 20.702 50.7525 20.702 50.7352C20.702 50.7179 20.7054 50.7008 20.712 50.6848C20.7186 50.6689 20.7283 50.6544 20.7406 50.6422L38.1405 33.2181C38.1886 33.169 38.2499 33.1351 38.3171 33.1203C38.3843 33.1054 38.4545 33.1104 38.5191 33.1346C41.7572 34.334 43.7715 29.4385 40.5882 27.9362C38.4429 26.9228 36.2048 28.933 36.6953 31.1602C36.7143 31.2465 36.7115 31.3363 36.6869 31.4213C36.6624 31.5063 36.617 31.5837 36.5548 31.6466L19.2549 48.9682C19.1374 49.0874 19.0192 49.0874 18.9001 48.9682L0.10492 30.161ZM40.6401 10.7143L39.0789 9.15077L38.7167 9.52008L20.7668 27.4283C20.7096 27.4871 20.6406 27.5078 20.5596 27.4903C19.112 27.1882 18.0406 27.5642 17.3454 28.6182C15.3882 31.5775 19.5644 34.6655 21.8144 31.928C22.4049 31.2094 22.5723 30.3168 22.3168 29.2501C22.2977 29.1658 22.3184 29.0935 22.3787 29.0331L40.6401 10.7143Z" fill="white"/>
<path d="M67.4738 27.2303C66.8024 24.2472 68.169 21.3619 71.1285 20.3985C74.3904 19.335 77.938 20.2411 80.7285 22.1393C80.7773 22.1726 80.8109 22.2239 80.822 22.282C80.8332 22.34 80.8209 22.4002 80.788 22.4493L78.9023 25.2249C78.8673 25.2763 78.8136 25.3119 78.753 25.324C78.6923 25.336 78.6296 25.3236 78.5785 25.2893C76.9 24.1685 73.2214 22.4564 71.6262 24.4738C70.45 25.9594 72.5785 26.999 73.7357 27.3233C76.6619 28.146 80.9595 28.8638 81.3738 32.6767C81.888 37.434 78.0619 39.6254 73.8762 39.3416C71.1365 39.1556 68.7301 38.1835 66.6571 36.4253C66.592 36.3712 66.5865 36.3116 66.6405 36.2465L68.8595 33.559C68.9166 33.4923 68.9809 33.4843 69.0524 33.5352C71.0785 34.9659 72.5214 35.7743 75.1785 35.6598C77.5666 35.5573 78.3666 33.1274 75.8333 32.1784C73.0643 31.1411 68.2571 30.7166 67.4738 27.2303Z" fill="white"/>
<path d="M106.214 20.1267L109.914 20.0981C109.932 20.098 109.949 20.1032 109.964 20.113C109.979 20.1227 109.991 20.1366 109.998 20.1529L117.997 38.9577C118.003 38.9715 118.006 38.9866 118.004 39.0016C118.003 39.0165 117.998 39.0309 117.99 39.0434C117.982 39.056 117.97 39.0663 117.957 39.0734C117.944 39.0805 117.929 39.0842 117.914 39.0841L113.783 39.0698C113.765 39.0697 113.748 39.0641 113.733 39.0539C113.718 39.0437 113.707 39.0293 113.7 39.0126L112.048 34.8443C112.041 34.8272 112.029 34.8125 112.014 34.8023C111.998 34.7921 111.98 34.7868 111.962 34.7871L104.074 34.78C104.055 34.7796 104.037 34.7849 104.022 34.7952C104.007 34.8054 103.995 34.82 103.988 34.8372L102.305 39.0102C102.298 39.027 102.287 39.0414 102.272 39.0516C102.257 39.0617 102.239 39.0673 102.221 39.0674L98.2237 39.0889C98.2087 39.0889 98.194 39.0852 98.1808 39.0781C98.1675 39.071 98.1563 39.0607 98.148 39.0482C98.1398 39.0357 98.1347 39.0213 98.1334 39.0063C98.1321 38.9914 98.1345 38.9763 98.1404 38.9625L106.131 20.1815C106.138 20.1652 106.149 20.1513 106.164 20.1416C106.179 20.1318 106.196 20.1267 106.214 20.1267ZM105.5 31.0934C105.495 31.1048 105.493 31.1173 105.495 31.1296C105.496 31.1419 105.5 31.1537 105.507 31.164C105.514 31.1743 105.523 31.1829 105.534 31.1888C105.545 31.1948 105.557 31.1981 105.569 31.1983L110.448 31.2245C110.46 31.2247 110.472 31.2217 110.484 31.2159C110.495 31.2101 110.504 31.2016 110.511 31.1912C110.518 31.1808 110.523 31.1689 110.524 31.1564C110.525 31.1439 110.524 31.1313 110.519 31.1196L108.109 25.1367C108.104 25.1229 108.094 25.111 108.081 25.1027C108.069 25.0944 108.054 25.09 108.039 25.09C108.024 25.09 108.01 25.0944 107.997 25.1027C107.985 25.111 107.975 25.1229 107.969 25.1367L105.5 31.0934Z" fill="white"/>
<path d="M88.9381 23.9324H83.6214C83.5766 23.9324 83.5336 23.9146 83.5019 23.8829C83.4702 23.8511 83.4524 23.808 83.4524 23.7631V20.4653C83.4524 20.443 83.4568 20.421 83.4653 20.4005C83.4738 20.3799 83.4862 20.3613 83.5019 20.3455C83.5176 20.3298 83.5362 20.3174 83.5567 20.3088C83.5773 20.3003 83.5992 20.296 83.6214 20.296H98.8738C98.9182 20.296 98.9609 20.3135 98.9925 20.3447C99.0241 20.3759 99.0422 20.4184 99.0428 20.4629L99.0643 23.7751C99.0646 23.7975 99.0604 23.8198 99.0521 23.8406C99.0437 23.8614 99.0313 23.8804 99.0156 23.8963C98.9999 23.9123 98.9811 23.925 98.9605 23.9336C98.9398 23.9423 98.9176 23.9468 98.8952 23.9468L93.3833 23.9253C93.3385 23.9253 93.2955 23.9431 93.2638 23.9749C93.2321 24.0066 93.2143 24.0497 93.2143 24.0946V38.9052C93.2143 38.9501 93.1965 38.9932 93.1648 39.025C93.1331 39.0567 93.0901 39.0745 93.0452 39.0745H89.2786C89.2337 39.0745 89.1907 39.0567 89.159 39.025C89.1273 38.9932 89.1095 38.9501 89.1095 38.9052L89.1071 24.1018C89.1071 24.0569 89.0893 24.0138 89.0576 23.982C89.0259 23.9503 88.9829 23.9324 88.9381 23.9324Z" fill="white"/>
<path d="M125.536 32.9343C125.267 32.9343 125.132 33.0686 125.131 33.3372L125.098 38.9362C125.098 38.9729 125.083 39.0081 125.057 39.034C125.031 39.06 124.996 39.0746 124.959 39.0746H121.19C121.071 39.0746 121.012 39.0149 121.012 38.8957V20.4176C121.012 20.386 121.024 20.3556 121.047 20.3333C121.069 20.3109 121.099 20.2984 121.131 20.2984C124.288 20.2936 127.463 20.2944 130.655 20.3007C137.524 20.315 139.05 29.8081 132.978 32.1926C132.94 32.2077 132.906 32.2312 132.878 32.2614C132.85 32.2917 132.829 32.3278 132.817 32.3672C132.805 32.4067 132.801 32.4483 132.808 32.4891C132.814 32.5299 132.829 32.5687 132.852 32.6028C134.307 34.7322 136.04 36.8593 137.148 38.9959C137.181 39.0579 137.162 39.0889 137.09 39.0889L132.769 39.0674C132.677 39.0668 132.587 39.0439 132.506 39.0007C132.425 38.9575 132.356 38.8952 132.305 38.8194L128.428 33.0511C128.376 32.9732 128.303 32.9343 128.209 32.9343H125.536ZM125.121 24.1018V29.2382C125.121 29.285 125.14 29.3298 125.173 29.3629C125.206 29.396 125.251 29.4146 125.298 29.4146H129.636C130.026 29.4146 130.413 29.3442 130.775 29.2073C131.136 29.0705 131.464 28.8699 131.74 28.617C132.016 28.3641 132.236 28.0639 132.385 27.7335C132.535 27.4031 132.612 27.049 132.612 26.6914V26.6485C132.612 25.9263 132.298 25.2336 131.74 24.7229C131.182 24.2122 130.425 23.9253 129.636 23.9253H125.298C125.251 23.9253 125.206 23.9439 125.173 23.977C125.14 24.0101 125.121 24.055 125.121 24.1018Z" fill="white"/>
<path d="M144.864 23.9324H139.419C139.383 23.9324 139.35 23.9184 139.325 23.8933C139.3 23.8683 139.286 23.8343 139.286 23.7989V20.4295C139.286 20.3941 139.3 20.3601 139.325 20.3351C139.35 20.31 139.383 20.296 139.419 20.296H154.807C154.842 20.296 154.876 20.31 154.901 20.3351C154.926 20.3601 154.94 20.3941 154.94 20.4295V23.7989C154.94 23.8343 154.926 23.8683 154.901 23.8933C154.876 23.9184 154.842 23.9324 154.807 23.9324H149.181C149.145 23.9324 149.111 23.9465 149.086 23.9716C149.061 23.9966 149.047 24.0306 149.047 24.066V38.941C149.047 38.9764 149.033 39.0104 149.008 39.0354C148.983 39.0605 148.949 39.0745 148.914 39.0745H145.126C145.091 39.0745 145.057 39.0605 145.032 39.0354C145.007 39.0104 144.993 38.9764 144.993 38.941L144.997 24.066C144.997 24.0484 144.994 24.0311 144.987 24.0149C144.981 23.9987 144.971 23.984 144.958 23.9716C144.946 23.9592 144.931 23.9493 144.915 23.9426C144.899 23.9359 144.882 23.9324 144.864 23.9324Z" fill="white"/>
<path d="M144.748 56.9136C142.7 55.2611 142.067 52.4139 142.757 49.9244C144.131 44.9526 150.071 44.0321 153.817 46.865C153.868 46.9043 153.911 46.9539 153.942 47.0108C153.974 47.0676 153.993 47.1304 153.998 47.1951C154.004 47.2598 153.996 47.325 153.975 47.3864C153.954 47.4478 153.92 47.5042 153.876 47.5517L152.462 49.085C152.438 49.1114 152.405 49.128 152.369 49.1315C152.333 49.135 152.298 49.1253 152.269 49.1041C151.353 48.4428 150.678 48.0581 150.243 47.95C145.574 46.7911 143.493 53.1364 147.345 55.4423C149.095 56.4892 150.79 55.7261 152.374 54.5123C152.455 54.4503 152.532 54.4559 152.605 54.529L154 55.9312C154.032 55.9633 154.058 56.0014 154.075 56.0435C154.092 56.0855 154.101 56.1306 154.101 56.1761C154.101 56.2216 154.091 56.2665 154.074 56.3084C154.056 56.3503 154.03 56.3882 153.997 56.42C151.426 58.9477 147.45 59.0955 144.748 56.9136Z" fill="white"/>
<path d="M121.781 47.9572H118.121C118.072 47.9572 118.024 47.9376 117.989 47.9028C117.954 47.868 117.934 47.8207 117.933 47.7712L117.907 45.6274C117.907 45.6023 117.911 45.5773 117.921 45.554C117.93 45.5308 117.944 45.5096 117.962 45.4918C117.98 45.474 118.001 45.46 118.024 45.4505C118.047 45.4411 118.072 45.4363 118.097 45.4367L128.407 45.5201C128.432 45.5204 128.457 45.5258 128.48 45.5358C128.503 45.5459 128.524 45.5604 128.541 45.5787C128.558 45.5969 128.572 45.6184 128.581 45.6419C128.59 45.6655 128.594 45.6905 128.593 45.7157L128.514 47.7759C128.512 47.8246 128.492 47.8707 128.457 47.9045C128.421 47.9383 128.375 47.9572 128.326 47.9572H124.814C124.789 47.9572 124.765 47.962 124.742 47.9715C124.719 47.981 124.699 47.9948 124.681 48.0123C124.664 48.0298 124.65 48.0506 124.64 48.0735C124.631 48.0963 124.626 48.1208 124.626 48.1455L124.686 58.0606C124.686 58.0858 124.681 58.1107 124.672 58.134C124.662 58.1573 124.648 58.1785 124.63 58.1962C124.613 58.214 124.592 58.2281 124.568 58.2375C124.545 58.247 124.52 58.2517 124.495 58.2514L122.14 58.2443C122.09 58.2443 122.043 58.2244 122.007 58.1891C121.972 58.1537 121.952 58.1058 121.952 58.0559L121.969 48.1455C121.969 48.0956 121.949 48.0477 121.914 48.0123C121.879 47.977 121.831 47.9572 121.781 47.9572Z" fill="white"/>
<path d="M133.676 55.8263H140.307C140.35 55.8263 140.392 55.8433 140.422 55.8736C140.453 55.904 140.471 55.9452 140.471 55.9884L140.49 58.0988C140.491 58.1206 140.487 58.1422 140.479 58.1625C140.47 58.1827 140.458 58.2011 140.443 58.2167C140.428 58.2322 140.41 58.2445 140.39 58.253C140.369 58.2614 140.348 58.2657 140.326 58.2657L130.998 58.2705C130.954 58.2705 130.912 58.2531 130.881 58.2223C130.851 58.1914 130.833 58.1496 130.833 58.1059L130.819 45.6322C130.819 45.5886 130.836 45.5467 130.867 45.5158C130.898 45.485 130.94 45.4677 130.983 45.4677L140.312 45.501C140.333 45.501 140.355 45.5053 140.375 45.5136C140.395 45.5218 140.413 45.5339 140.428 45.5492C140.443 45.5645 140.455 45.5826 140.464 45.6026C140.472 45.6226 140.476 45.644 140.476 45.6656V47.7926C140.476 47.8142 140.472 47.8356 140.464 47.8556C140.455 47.8756 140.443 47.8937 140.428 47.909C140.413 47.9242 140.395 47.9364 140.375 47.9446C140.355 47.9529 140.333 47.9572 140.312 47.9572H133.676C133.633 47.9572 133.591 47.9745 133.56 48.0053C133.529 48.0362 133.512 48.0781 133.512 48.1217V50.2917C133.512 50.3353 133.529 50.3771 133.56 50.408C133.591 50.4389 133.633 50.4562 133.676 50.4562L139.478 50.4705C139.522 50.4705 139.564 50.4878 139.595 50.5187C139.625 50.5496 139.643 50.5914 139.643 50.635V52.9552C139.643 52.977 139.638 52.9986 139.63 53.0188C139.622 53.0389 139.609 53.0571 139.594 53.0724C139.578 53.0877 139.56 53.0998 139.54 53.1079C139.519 53.1161 139.498 53.1201 139.476 53.1198L133.678 53.0697C133.657 53.0694 133.635 53.0734 133.615 53.0815C133.595 53.0897 133.576 53.1017 133.561 53.117C133.545 53.1323 133.533 53.1506 133.525 53.1707C133.516 53.1908 133.512 53.2124 133.512 53.2342V55.6617C133.512 55.7054 133.529 55.7472 133.56 55.7781C133.591 55.8089 133.633 55.8263 133.676 55.8263Z" fill="white"/>
</g>
<defs>
<clipPath id="clip0_308_11">
<rect width="155" height="60" fill="white"/>
</clipPath>
</defs>
</svg>
