<svg width="43" height="30" viewBox="0 0 43 30" fill="none" xmlns="http://www.w3.org/2000/svg">
<g clip-path="url(#clip0_222_8)">
<path d="M2.18604 0.358316C2.71937 0.133316 3.28604 -0.00835088 3.86104 -1.75464e-05C15.5277 -1.75464e-05 27.1944 -1.75464e-05 38.861 -1.75464e-05C39.436 -0.00835088 40.011 0.133316 40.536 0.366649C37.6944 3.23332 34.811 6.06665 31.9527 8.92498C29.5277 11.3333 27.1027 13.75 24.686 16.1583C24.386 16.4416 24.111 16.7583 23.786 17.0166C22.8277 17.8666 21.411 18.1416 20.1944 17.7333C19.586 17.55 19.061 17.175 18.611 16.7416C13.2527 11.4083 7.89437 6.07498 2.5277 0.741649C2.41104 0.616649 2.28604 0.499982 2.18604 0.358316Z" fill="#B756FE"/>
<path d="M0.394377 2.15002C4.71938 6.42502 9.02771 10.7167 13.3444 15C9.02771 19.2834 4.71938 23.575 0.394377 27.85C0.194377 27.3917 0.0610433 26.9 0.02771 26.3917V3.60836C0.0610433 3.10002 0.194377 2.60836 0.394377 2.15002Z" fill="#F6F6F7"/>
<path d="M29.3777 15C33.6944 10.7167 37.9944 6.41669 42.3277 2.15002C42.5277 2.60836 42.6694 3.10002 42.6944 3.60836V26.4C42.661 26.9 42.5277 27.4 42.3277 27.8584C38.0027 23.575 33.6944 19.2834 29.3777 15Z" fill="#F6F6F7"/>
<path d="M5.16937 26.6416C8.48604 23.3499 11.7944 20.0583 15.111 16.7666C15.7527 17.3999 16.3777 18.0416 17.0194 18.6666C17.9527 19.5749 19.1777 20.1749 20.461 20.3583C22.286 20.6333 24.2194 20.0499 25.5694 18.7916C26.2694 18.1333 26.9277 17.4416 27.611 16.7666C30.2694 19.4083 32.9277 22.0499 35.586 24.6916C37.236 26.3416 38.911 27.9666 40.5444 29.6333C40.0194 29.8666 39.4444 30.0083 38.8694 29.9999C27.2027 29.9999 15.536 29.9999 3.86937 29.9999C3.28604 30.0083 2.71937 29.8666 2.18604 29.6333C3.1527 28.6166 4.1777 27.6416 5.16937 26.6416Z" fill="#F6F6F7"/>
</g>
<defs>
<clipPath id="clip0_222_8">
<rect width="42.6667" height="30" fill="white" transform="translate(0.02771)"/>
</clipPath>
</defs>
</svg>
