<svg width="49" height="48" viewBox="0 0 49 48" fill="none" xmlns="http://www.w3.org/2000/svg">
<path d="M5.36798 43.303L8.06198 33.468C6.39998 30.59 5.52598 27.324 5.52698 23.979C5.53198 13.514 14.048 5 24.514 5C29.593 5.002 34.359 6.979 37.944 10.566C41.528 14.154 43.502 18.922 43.5 23.994C43.496 34.459 34.978 42.974 24.514 42.974H24.506C21.329 42.973 18.206 42.176 15.433 40.663L5.36798 43.303Z" fill="white"/>
<path d="M5.36797 43.803C5.23597 43.803 5.10797 43.751 5.01297 43.655C4.88797 43.528 4.83897 43.343 4.88597 43.172L7.52497 33.536C5.88897 30.63 5.02597 27.33 5.02797 23.98C5.03197 13.238 13.773 4.5 24.514 4.5C29.724 4.502 34.619 6.531 38.298 10.213C41.977 13.896 44.002 18.79 44 23.994C43.996 34.735 35.254 43.474 24.514 43.474C21.325 43.473 18.17 42.686 15.37 41.197L5.49497 43.786C5.45297 43.798 5.41097 43.803 5.36797 43.803Z" fill="white"/>
<path d="M24.514 5C29.593 5.002 34.359 6.979 37.944 10.566C41.528 14.154 43.502 18.922 43.5 23.994C43.496 34.459 34.978 42.974 24.514 42.974H24.506C21.329 42.973 18.206 42.176 15.433 40.663L5.36803 43.303L8.06203 33.468C6.40003 30.59 5.52603 27.324 5.52703 23.979C5.53203 13.514 14.048 5 24.514 5ZM24.514 4C13.498 4 4.53203 12.962 4.52703 23.979C4.52603 27.346 5.37603 30.664 6.98803 33.601L4.40303 43.04C4.30903 43.385 4.40503 43.753 4.65703 44.007C4.84703 44.199 5.10403 44.304 5.36803 44.304C5.45303 44.304 5.53803 44.293 5.62203 44.271L15.309 41.731C18.137 43.199 21.307 43.974 24.506 43.975C35.53 43.975 44.496 35.012 44.501 23.995C44.503 18.656 42.426 13.636 38.653 9.86C34.878 6.083 29.857 4.002 24.514 4Z" fill="#CFD8DC"/>
<path d="M35.676 12.8321C32.696 9.85005 28.735 8.20705 24.519 8.20605C15.815 8.20605 8.736 15.2821 8.732 23.9801C8.731 26.9611 9.565 29.8631 11.145 32.3761L11.521 32.9731L9.92599 38.7941L15.899 37.2281L16.476 37.5701C18.898 39.0081 21.676 39.7681 24.508 39.7691H24.514C33.212 39.7691 40.291 32.6921 40.294 23.9931C40.295 19.7781 38.656 15.8141 35.676 12.8321Z" fill="#40C351"/>
<path fill-rule="evenodd" clip-rule="evenodd" d="M19.768 16.045C19.413 15.255 19.039 15.239 18.7 15.225C18.423 15.213 18.107 15.214 17.791 15.214C17.475 15.214 16.961 15.333 16.526 15.808C16.091 16.283 14.865 17.43 14.865 19.764C14.865 22.098 16.565 24.354 16.802 24.67C17.039 24.986 20.084 29.929 24.906 31.831C28.913 33.411 29.729 33.097 30.599 33.018C31.469 32.939 33.406 31.871 33.801 30.763C34.196 29.655 34.196 28.706 34.078 28.508C33.959 28.31 33.643 28.192 33.169 27.954C32.695 27.716 30.362 26.569 29.927 26.411C29.492 26.253 29.176 26.174 28.859 26.649C28.543 27.123 27.634 28.192 27.357 28.508C27.08 28.825 26.803 28.865 26.329 28.627C25.855 28.389 24.327 27.889 22.514 26.273C21.104 25.016 20.152 23.463 19.875 22.988C19.598 22.514 19.845 22.257 20.083 22.02C20.296 21.807 20.557 21.466 20.795 21.189C21.032 20.912 21.111 20.714 21.269 20.398C21.427 20.081 21.348 19.804 21.229 19.567C21.112 19.329 20.19 16.983 19.768 16.045Z" fill="white"/>
</svg>
